<svg width="1100" height="840" xmlns="http://www.w3.org/2000/svg" font-family="Arial, sans-serif">
  <rect width="1100" height="840" fill="#f7f7f7"/>

  <!-- TÍTULO -->
  <text x="440" y="28" text-anchor="middle" font-size="16" font-weight="bold" fill="#222">Máquina Expendedora de Fragancias — Plano de Gabinete</text>
  <text x="440" y="44" text-anchor="middle" font-size="10" fill="#999">Vista frontal + corte lateral · Escala referencial (0.75px = 1mm)</text>

  <!-- ═══════════════════════════════════════════════════════════ -->
  <!--  VISTA FRONTAL                                             -->
  <!--  Escala 0.75 | Cabinet x=160, y=105, 600×285px            -->
  <!--                                                           -->
  <!--  Desglose ancho (px / mm):                                -->
  <!--  Margen izq 15/20 | Pantalla 146/195 | Gap 11/15 |        -->
  <!--  Pago 75/100 | Gap 11/15 | Display 338/450 | Der 4/5      -->
  <!--  Total: 600px = 800mm ✓                                   -->
  <!--                                                           -->
  <!--  Desglose alto (zonas de contenido):                      -->
  <!--  Pantalla: 297mm (en zona de 340mm disponible)            -->
  <!--  Frascos: 130mm + Glades: 202mm = 332mm (+ 8mm margen)    -->
  <!--  Pago: MP 201mm + gap 10mm + Coin 120mm = 331mm           -->
  <!-- ═══════════════════════════════════════════════════════════ -->

  <!-- Cota ancho total 800mm — arriba, separada -->
  <line x1="160" y1="72" x2="760" y2="72" stroke="#c0392b" stroke-width="1.5"/>
  <line x1="160" y1="63" x2="160" y2="105" stroke="#c0392b" stroke-width="1" stroke-dasharray="3,3"/>
  <line x1="760" y1="63" x2="760" y2="105" stroke="#c0392b" stroke-width="1" stroke-dasharray="3,3"/>
  <text x="460" y="66" text-anchor="middle" font-size="14" font-weight="bold" fill="#c0392b">800 mm</text>

  <!-- Gabinete exterior -->
  <rect x="160" y="105" width="600" height="285" fill="white" stroke="#222" stroke-width="3" rx="6"/>

  <!-- Cota alto 380mm — derecha, separada -->
  <line x1="778" y1="105" x2="778" y2="390" stroke="#c0392b" stroke-width="1.5"/>
  <line x1="760" y1="105" x2="778" y2="105" stroke="#c0392b" stroke-width="1" stroke-dasharray="3,3"/>
  <line x1="760" y1="390" x2="778" y2="390" stroke="#c0392b" stroke-width="1" stroke-dasharray="3,3"/>
  <text x="800" y="252" text-anchor="middle" font-size="14" font-weight="bold" fill="#c0392b" transform="rotate(90,800,252)">380 mm</text>

  <!-- ── ZONA 1: Pantalla — x=175, w=146px (195mm) ── -->
  <rect x="175" y="120" width="146" height="255" fill="#ddeeff" stroke="#2980b9" stroke-width="1.5" rx="4"/>
  <rect x="181" y="125" width="134" height="215" fill="#0d1b3e" stroke="#2980b9" stroke-width="1" rx="3"/>
  <rect x="185" y="129" width="126" height="207" fill="#122150" rx="2"/>
  <text x="248" y="238" text-anchor="middle" font-size="9" fill="#4fc3f7">[ UI ]</text>
  <text x="248" y="330" text-anchor="middle" font-size="10" font-weight="bold" fill="#1a5276">PANTALLA</text>
  <text x="248" y="343" text-anchor="middle" font-size="9" fill="#2980b9">195 × 297 mm</text>
  <text x="248" y="355" text-anchor="middle" font-size="8" fill="#5dade2">portrait</text>

  <!-- ── ZONA 2: Pago — x=332, w=75px (100mm) ── -->
  <!--  MP Smart 2: 201mm → 151px | CH-926: 120mm → 90px         -->
  <rect x="332" y="120" width="75" height="255" fill="#f5f5f5" stroke="#7f8c8d" stroke-width="1.5" rx="4"/>

  <!-- MP Point Smart 2 -->
  <rect x="339" y="122" width="61" height="151" fill="#d5d8dc" stroke="#95a5a6" stroke-width="1" rx="5"/>
  <rect x="343" y="126" width="53" height="95" fill="#1c2833" rx="3"/>
  <text x="370" y="178" text-anchor="middle" font-size="7" fill="#85c1e9" font-weight="bold">MERCADO PAGO</text>
  <text x="370" y="189" text-anchor="middle" font-size="6" fill="#5d6d7e">Point Smart 2</text>
  <rect x="344" y="224" width="51" height="15" fill="#7f8c8d" rx="2"/>
  <text x="370" y="235" text-anchor="middle" font-size="6" fill="#ecf0f1">tarjeta / NFC</text>
  <text x="370" y="249" text-anchor="middle" font-size="6" fill="#555">201×80×62mm</text>
  <text x="370" y="260" text-anchor="middle" font-size="6" fill="#888">↑ oficial MP MX</text>

  <!-- CH-926 Coin -->
  <rect x="339" y="278" width="61" height="90" fill="#bdc3c7" stroke="#7f8c8d" stroke-width="1" rx="4"/>
  <rect x="350" y="287" width="39" height="7" fill="#555" rx="2"/>
  <text x="370" y="313" text-anchor="middle" font-size="7" font-weight="bold" fill="#2c3e50">CH-926</text>
  <text x="370" y="324" text-anchor="middle" font-size="6" fill="#444">coin acceptor</text>
  <text x="370" y="335" text-anchor="middle" font-size="6" fill="#555">120×64mm · 12V</text>
  <text x="370" y="357" text-anchor="middle" font-size="9" font-weight="bold" fill="#555">PAGO</text>

  <!-- ── ZONA 3: Display — x=418, w=338px (450mm) ── -->
  <rect x="418" y="120" width="338" height="255" fill="#fffbf0" stroke="#d4ac0d" stroke-width="1.5" rx="4"/>

  <!-- Compartimiento frascos: 130mm → 98px -->
  <rect x="423" y="124" width="328" height="98" fill="#fff8e1" stroke="#f0c040" stroke-width="1" rx="3"/>
  <rect x="426" y="126" width="322" height="5" fill="#ffe082" rx="2" opacity="0.9"/>
  <text x="587" y="131" text-anchor="middle" font-size="9" fill="#a07820" font-style="italic">compartimiento único iluminado — 450 × 130 mm</text>

  <!-- 5 frascos. pitch=67.6px, centros: 452 519 587 655 723 -->
  <rect x="432" y="148" width="40" height="65" fill="#c8a050" stroke="#a07020" stroke-width="1" rx="5"/>
  <rect x="440" y="142" width="24" height="8" fill="#b09040" rx="2"/>
  <rect x="443" y="136" width="18" height="8" fill="#a08030" rx="2"/>
  <text x="452" y="185" text-anchor="middle" font-size="8" fill="white" font-weight="bold">F1</text>

  <rect x="499" y="148" width="40" height="65" fill="#c8a050" stroke="#a07020" stroke-width="1" rx="5"/>
  <rect x="507" y="142" width="24" height="8" fill="#b09040" rx="2"/>
  <rect x="510" y="136" width="18" height="8" fill="#a08030" rx="2"/>
  <text x="519" y="185" text-anchor="middle" font-size="8" fill="white" font-weight="bold">F2</text>

  <rect x="567" y="148" width="40" height="65" fill="#c8a050" stroke="#a07020" stroke-width="1" rx="5"/>
  <rect x="575" y="142" width="24" height="8" fill="#b09040" rx="2"/>
  <rect x="578" y="136" width="18" height="8" fill="#a08030" rx="2"/>
  <text x="587" y="185" text-anchor="middle" font-size="8" fill="white" font-weight="bold">F3</text>

  <rect x="635" y="148" width="40" height="65" fill="#c8a050" stroke="#a07020" stroke-width="1" rx="5"/>
  <rect x="643" y="142" width="24" height="8" fill="#b09040" rx="2"/>
  <rect x="646" y="136" width="18" height="8" fill="#a08030" rx="2"/>
  <text x="655" y="185" text-anchor="middle" font-size="8" fill="white" font-weight="bold">F4</text>

  <rect x="703" y="148" width="40" height="65" fill="#c8a050" stroke="#a07020" stroke-width="1" rx="5"/>
  <rect x="711" y="142" width="24" height="8" fill="#b09040" rx="2"/>
  <rect x="714" y="136" width="18" height="8" fill="#a08030" rx="2"/>
  <text x="723" y="185" text-anchor="middle" font-size="8" fill="white" font-weight="bold">F5</text>

  <!-- Divisor frascos/Glades -->
  <line x1="423" y1="222" x2="751" y2="222" stroke="#d4ac0d" stroke-width="1" stroke-dasharray="6,3"/>

  <!-- 5 Glades: 202mm → 152px, y=224 a y=376 -->
  <rect x="420" y="224" width="66" height="152" fill="#d6eaf8" stroke="#85c1e9" stroke-width="1" rx="3"/>
  <rect x="430" y="234" width="46" height="105" fill="#aed6f1" stroke="#5dade2" stroke-width="1" rx="3"/>
  <text x="453" y="292" text-anchor="middle" font-size="7" fill="#1a5276">GLADE S2</text>
  <ellipse cx="453" cy="353" rx="9" ry="5" fill="#999" stroke="#777" stroke-width="1"/>
  <text x="453" y="368" text-anchor="middle" font-size="7" fill="#888">nozzle</text>

  <rect x="487" y="224" width="66" height="152" fill="#d6eaf8" stroke="#85c1e9" stroke-width="1" rx="3"/>
  <rect x="497" y="234" width="46" height="105" fill="#aed6f1" stroke="#5dade2" stroke-width="1" rx="3"/>
  <text x="520" y="292" text-anchor="middle" font-size="7" fill="#1a5276">GLADE S2</text>
  <ellipse cx="520" cy="353" rx="9" ry="5" fill="#999" stroke="#777" stroke-width="1"/>
  <text x="520" y="368" text-anchor="middle" font-size="7" fill="#888">nozzle</text>

  <rect x="554" y="224" width="66" height="152" fill="#d6eaf8" stroke="#85c1e9" stroke-width="1" rx="3"/>
  <rect x="564" y="234" width="46" height="105" fill="#aed6f1" stroke="#5dade2" stroke-width="1" rx="3"/>
  <text x="587" y="292" text-anchor="middle" font-size="7" fill="#1a5276">GLADE S2</text>
  <ellipse cx="587" cy="353" rx="9" ry="5" fill="#999" stroke="#777" stroke-width="1"/>
  <text x="587" y="368" text-anchor="middle" font-size="7" fill="#888">nozzle</text>

  <rect x="621" y="224" width="66" height="152" fill="#d6eaf8" stroke="#85c1e9" stroke-width="1" rx="3"/>
  <rect x="631" y="234" width="46" height="105" fill="#aed6f1" stroke="#5dade2" stroke-width="1" rx="3"/>
  <text x="654" y="292" text-anchor="middle" font-size="7" fill="#1a5276">GLADE S2</text>
  <ellipse cx="654" cy="353" rx="9" ry="5" fill="#999" stroke="#777" stroke-width="1"/>
  <text x="654" y="368" text-anchor="middle" font-size="7" fill="#888">nozzle</text>

  <rect x="688" y="224" width="66" height="152" fill="#d6eaf8" stroke="#85c1e9" stroke-width="1" rx="3"/>
  <rect x="698" y="234" width="46" height="105" fill="#aed6f1" stroke="#5dade2" stroke-width="1" rx="3"/>
  <text x="721" y="292" text-anchor="middle" font-size="7" fill="#1a5276">GLADE S2</text>
  <ellipse cx="721" cy="353" rx="9" ry="5" fill="#999" stroke="#777" stroke-width="1"/>
  <text x="721" y="368" text-anchor="middle" font-size="7" fill="#888">nozzle</text>

  <text x="587" y="385" text-anchor="middle" font-size="9" font-weight="bold" fill="#a07820">DISPLAY + DISPENSADORES</text>

  <!-- ═══════════════════════════════════════════════════════════ -->
  <!--  COTAS ANCHO — dos filas                                   -->
  <!--  Fila 1: zonas principales (195 / 100 / 450)              -->
  <!--  Fila 2: márgenes y gaps entre zonas                       -->
  <!-- ═══════════════════════════════════════════════════════════ -->

  <!-- FILA 1: zonas principales -->
  <!-- Pantalla 195mm: x=175→321 -->
  <line x1="175" y1="402" x2="321" y2="402" stroke="#2980b9" stroke-width="1.2"/>
  <line x1="175" y1="397" x2="175" y2="407" stroke="#2980b9" stroke-width="1.2"/>
  <line x1="321" y1="397" x2="321" y2="407" stroke="#2980b9" stroke-width="1.2"/>
  <text x="248" y="416" text-anchor="middle" font-size="10" font-weight="bold" fill="#2980b9">195 mm</text>
  <text x="248" y="427" text-anchor="middle" font-size="8" fill="#5dade2">pantalla</text>

  <!-- Pago 100mm: x=332→407 -->
  <line x1="332" y1="402" x2="407" y2="402" stroke="#7f8c8d" stroke-width="1.2"/>
  <line x1="332" y1="397" x2="332" y2="407" stroke="#7f8c8d" stroke-width="1.2"/>
  <line x1="407" y1="397" x2="407" y2="407" stroke="#7f8c8d" stroke-width="1.2"/>
  <text x="370" y="416" text-anchor="middle" font-size="10" font-weight="bold" fill="#7f8c8d">100 mm</text>
  <text x="370" y="427" text-anchor="middle" font-size="8" fill="#95a5a6">pago</text>

  <!-- Display 450mm: x=418→756 -->
  <line x1="418" y1="402" x2="756" y2="402" stroke="#d4ac0d" stroke-width="1.2"/>
  <line x1="418" y1="397" x2="418" y2="407" stroke="#d4ac0d" stroke-width="1.2"/>
  <line x1="756" y1="397" x2="756" y2="407" stroke="#d4ac0d" stroke-width="1.2"/>
  <text x="587" y="416" text-anchor="middle" font-size="10" font-weight="bold" fill="#d4ac0d">450 mm</text>
  <text x="587" y="427" text-anchor="middle" font-size="8" fill="#e8c547">display + dispensadores</text>

  <!-- FILA 2: márgenes y gaps entre zonas -->
  <!-- Margen izq 20mm: x=160→175 -->
  <line x1="160" y1="438" x2="175" y2="438" stroke="#aaa" stroke-width="1"/>
  <line x1="160" y1="434" x2="160" y2="442" stroke="#aaa" stroke-width="1"/>
  <line x1="175" y1="434" x2="175" y2="442" stroke="#aaa" stroke-width="1"/>
  <text x="168" y="452" text-anchor="middle" font-size="7" fill="#aaa">20</text>

  <!-- Gap pantalla–pago 15mm: x=321→332 -->
  <line x1="321" y1="438" x2="332" y2="438" stroke="#aaa" stroke-width="1"/>
  <line x1="321" y1="434" x2="321" y2="442" stroke="#aaa" stroke-width="1"/>
  <line x1="332" y1="434" x2="332" y2="442" stroke="#aaa" stroke-width="1"/>
  <text x="327" y="452" text-anchor="middle" font-size="7" fill="#aaa">15</text>

  <!-- Gap pago–display 15mm: x=407→418 -->
  <line x1="407" y1="438" x2="418" y2="438" stroke="#aaa" stroke-width="1"/>
  <line x1="407" y1="434" x2="407" y2="442" stroke="#aaa" stroke-width="1"/>
  <line x1="418" y1="434" x2="418" y2="442" stroke="#aaa" stroke-width="1"/>
  <text x="413" y="452" text-anchor="middle" font-size="7" fill="#aaa">15</text>

  <!-- Margen der 5mm: x=756→760 -->
  <line x1="756" y1="438" x2="760" y2="438" stroke="#aaa" stroke-width="1"/>
  <line x1="756" y1="434" x2="756" y2="442" stroke="#aaa" stroke-width="1"/>
  <line x1="760" y1="434" x2="760" y2="442" stroke="#aaa" stroke-width="1"/>
  <text x="758" y="452" text-anchor="middle" font-size="7" fill="#aaa">5</text>

  <!-- Nota suma -->
  <text x="460" y="465" text-anchor="middle" font-size="8" fill="#bbb">← márgenes y gaps (mm) — total: 20+195+15+100+15+450+5 = 800mm →</text>

  <!-- Cotas verticales izq del gabinete -->
  <line x1="143" y1="124" x2="143" y2="222" stroke="#d4ac0d" stroke-width="1.2"/>
  <line x1="138" y1="124" x2="148" y2="124" stroke="#d4ac0d" stroke-width="1.2"/>
  <line x1="138" y1="222" x2="148" y2="222" stroke="#d4ac0d" stroke-width="1.2"/>
  <text x="126" y="178" text-anchor="middle" font-size="8" fill="#d4ac0d" transform="rotate(-90,126,178)">130mm frascos</text>

  <line x1="143" y1="224" x2="143" y2="376" stroke="#5dade2" stroke-width="1.2"/>
  <line x1="138" y1="224" x2="148" y2="224" stroke="#5dade2" stroke-width="1.2"/>
  <line x1="138" y1="376" x2="148" y2="376" stroke="#5dade2" stroke-width="1.2"/>
  <text x="126" y="305" text-anchor="middle" font-size="8" fill="#5dade2" transform="rotate(-90,126,305)">202mm Glade</text>

  <!-- Margen inferior en zona display: 380-(130+202)=48mm, ~8mm arriba + ~40mm abajo -->
  <!-- Flecha y nota al margen inf -->
  <line x1="160" y1="376" x2="160" y2="390" stroke="#bbb" stroke-width="1" stroke-dasharray="3,2"/>
  <text x="143" y="390" text-anchor="middle" font-size="8" fill="#bbb" transform="rotate(-90,143,390)">48mm márgenes</text>

  <!-- ═══════════════════════════════════════════════════════════ -->
  <!--  CORTE LATERAL                                             -->
  <!--  Profundo 180mm → 135px | Alto 380mm → 285px              -->
  <!--  Cabinet x=160, y=478                                     -->
  <!--                                                           -->
  <!--  Desglose profundo: panel 8 | zona 60 | electrónica 60 | trasero 7 = 135px = 180mm -->
  <!--  Desglose alto: margen 12 | frascos 98 | glade 152 | margen 23 = 285px = 380mm    -->
  <!-- ═══════════════════════════════════════════════════════════ -->

  <text x="160" y="472" font-size="13" font-weight="bold" fill="#333">Corte lateral — profundo: 180 mm</text>
  <text x="160" y="484" font-size="9" fill="#999">izquierda = frente · los mm verticales son la altura del gabinete</text>

  <!-- Outline -->
  <rect x="160" y="490" width="135" height="285" fill="white" stroke="#222" stroke-width="2.5" rx="4"/>

  <!-- Panel frontal/vidrio: 8px=11mm -->
  <rect x="160" y="490" width="8" height="285" fill="#d5e8f8" stroke="#85c1e9" stroke-width="1"/>
  <text x="164" y="636" text-anchor="middle" font-size="7" fill="#2980b9" transform="rotate(-90,164,636)">vidrio 10mm</text>

  <!-- FRENTE: zona frascos+glade compartida (60px=80mm) de x=168 a x=228 -->
  <!-- Margen superior: 12px (16mm): y=490→502 -->
  <rect x="168" y="490" width="60" height="12" fill="#f0f0f0" stroke="none"/>
  <text x="198" y="499" text-anchor="middle" font-size="7" fill="#bbb">16mm</text>

  <!-- Frasco: 98px (130mm): y=502→600 -->
  <rect x="168" y="502" width="60" height="98" fill="#fff8e1" stroke="#d4ac0d" stroke-width="1.2" rx="2"/>
  <rect x="176" y="510" width="44" height="80" fill="#c8a050" stroke="#a07020" stroke-width="1" rx="4"/>
  <rect x="183" y="505" width="30" height="7" fill="#b09040" rx="2"/>
  <text x="198" y="551" text-anchor="middle" font-size="7" fill="white">frasco</text>
  <text x="198" y="562" text-anchor="middle" font-size="7" fill="white">130mm</text>

  <!-- Divisor frasco/glade -->
  <line x1="168" y1="600" x2="228" y2="600" stroke="#d4ac0d" stroke-width="1" stroke-dasharray="4,3"/>

  <!-- Glade: 152px (202mm): y=600→752 -->
  <rect x="168" y="600" width="60" height="152" fill="#d6eaf8" stroke="#85c1e9" stroke-width="1.2" rx="2"/>
  <rect x="178" y="610" width="40" height="118" fill="#aed6f1" stroke="#5dade2" stroke-width="1" rx="4"/>
  <text x="198" y="673" text-anchor="middle" font-size="7" fill="#1a5276">Glade S2</text>
  <text x="198" y="683" text-anchor="middle" font-size="7" fill="#1a5276">202mm</text>
  <!-- nozzle -->
  <rect x="160" y="740" width="8" height="8" fill="#999" rx="1"/>
  <text x="155" y="747" text-anchor="end" font-size="7" fill="#777">nozzle</text>

  <!-- Margen inferior: 23px (31mm): y=752→775 -->
  <!-- Este espacio es estructura inferior (panel base + tornillería + margen de montaje) -->
  <rect x="168" y="752" width="60" height="23" fill="#e8e8e8" stroke="none"/>
  <text x="198" y="766" text-anchor="middle" font-size="7" fill="#888">31mm</text>
  <text x="198" y="775" text-anchor="middle" font-size="7" fill="#888">base/estr.</text>

  <!-- Cota vertical izquierda del corte: altura total 380mm -->
  <line x1="143" y1="490" x2="143" y2="775" stroke="#c0392b" stroke-width="1.5"/>
  <line x1="137" y1="490" x2="149" y2="490" stroke="#c0392b" stroke-width="1.5"/>
  <line x1="137" y1="775" x2="149" y2="775" stroke="#c0392b" stroke-width="1.5"/>
  <text x="126" y="637" text-anchor="middle" font-size="12" font-weight="bold" fill="#c0392b" transform="rotate(-90,126,637)">380 mm</text>

  <!-- Cotas verticales de las zonas del corte -->
  <line x1="237" y1="502" x2="237" y2="600" stroke="#d4ac0d" stroke-width="1"/>
  <line x1="233" y1="502" x2="241" y2="502" stroke="#d4ac0d" stroke-width="1"/>
  <line x1="233" y1="600" x2="241" y2="600" stroke="#d4ac0d" stroke-width="1"/>
  <text x="255" y="556" text-anchor="start" font-size="8" fill="#d4ac0d">130mm</text>

  <line x1="237" y1="600" x2="237" y2="752" stroke="#5dade2" stroke-width="1"/>
  <line x1="233" y1="600" x2="241" y2="600" stroke="#5dade2" stroke-width="1"/>
  <line x1="233" y1="752" x2="241" y2="752" stroke="#5dade2" stroke-width="1"/>
  <text x="255" y="681" text-anchor="start" font-size="8" fill="#5dade2">202mm</text>

  <!-- ELECTRÓNICA: x=228→288 (60px=80mm) -->
  <rect x="228" y="490" width="60" height="285" fill="#f0f0f0" stroke="#95a5a6" stroke-width="1.2" rx="2"/>

  <!-- PSU Mean Well LRS-50-12 (montada vertical): 30mm profundo → 23px, 99mm alto → 74px -->
  <rect x="231" y="502" width="23" height="74" fill="#e8daef" stroke="#8e44ad" stroke-width="1" rx="2"/>
  <text x="243" y="533" text-anchor="middle" font-size="6" fill="#6c3483">PSU</text>
  <text x="243" y="542" text-anchor="middle" font-size="6" fill="#6c3483">12V/50W</text>
  <text x="243" y="551" text-anchor="middle" font-size="6" fill="#6c3483">99×82×30</text>

  <!-- Step-down 12→5V -->
  <rect x="256" y="502" width="29" height="22" fill="#d5f5e3" stroke="#27ae60" stroke-width="1" rx="2"/>
  <text x="271" y="514" text-anchor="middle" font-size="6" fill="#1a7a3e">12→5V</text>
  <text x="271" y="522" text-anchor="middle" font-size="6" fill="#1a7a3e">step-dwn</text>

  <!-- RPi4 -->
  <rect x="231" y="582" width="54" height="38" fill="#bdc3c7" stroke="#7f8c8d" stroke-width="1" rx="2"/>
  <text x="258" y="600" text-anchor="middle" font-size="7" fill="#333">RPi 4</text>
  <text x="258" y="611" text-anchor="middle" font-size="6" fill="#555">5V / 3A</text>

  <!-- ESP32 -->
  <rect x="231" y="626" width="54" height="28" fill="#bdc3c7" stroke="#7f8c8d" stroke-width="1" rx="2"/>
  <text x="258" y="643" text-anchor="middle" font-size="7" fill="#333">ESP32</text>

  <text x="258" y="720" text-anchor="middle" font-size="7" fill="#999">cables</text>

  <!-- Panel trasero: 7px=9mm -->
  <rect x="288" y="490" width="7" height="285" fill="#ddd" stroke="#bbb" stroke-width="1"/>

  <!-- Cota profundo total: 180mm -->
  <line x1="160" y1="790" x2="295" y2="790" stroke="#c0392b" stroke-width="1.5"/>
  <line x1="160" y1="784" x2="160" y2="796" stroke="#c0392b" stroke-width="1.5"/>
  <line x1="295" y1="784" x2="295" y2="796" stroke="#c0392b" stroke-width="1.5"/>
  <text x="228" y="810" text-anchor="middle" font-size="13" font-weight="bold" fill="#c0392b">180 mm</text>

  <!-- Sub-cotas profundo -->
  <text x="164" y="786" text-anchor="middle" font-size="8" fill="#85c1e9">10</text>
  <text x="198" y="786" text-anchor="middle" font-size="8" fill="#d4ac0d">80</text>
  <text x="258" y="786" text-anchor="middle" font-size="8" fill="#95a5a6">80</text>
  <text x="292" y="786" text-anchor="middle" font-size="8" fill="#aaa">10</text>
  <text x="228" y="786" text-anchor="middle" font-size="7" fill="#ccc">mm</text>

  <!-- ═══════════════════════════════════════════════════════════ -->
  <!--  PANEL DERECHO                                             -->
  <!-- ═══════════════════════════════════════════════════════════ -->

  <text x="880" y="80" text-anchor="middle" font-size="14" font-weight="bold" fill="#222">Dimensiones finales</text>
  <rect x="820" y="88" width="220" height="100" fill="white" stroke="#c0392b" stroke-width="2" rx="6"/>
  <text x="840" y="112" font-size="12" fill="#c0392b" font-weight="bold">Ancho:</text>
  <text x="915" y="112" font-size="12" fill="#333">800 mm</text>
  <text x="840" y="132" font-size="12" fill="#c0392b" font-weight="bold">Alto:</text>
  <text x="915" y="132" font-size="12" fill="#333">380 mm</text>
  <text x="840" y="152" font-size="12" fill="#c0392b" font-weight="bold">Profundo:</text>
  <text x="933" y="152" font-size="12" fill="#333">180 mm</text>
  <text x="930" y="175" text-anchor="middle" font-size="8" fill="#999">sobremesa · landscape</text>

  <line x1="820" y1="200" x2="1040" y2="200" stroke="#eee" stroke-width="1"/>

  <text x="930" y="222" text-anchor="middle" font-size="12" font-weight="bold" fill="#222">Hardware (medidas reales)</text>
  <rect x="820" y="230" width="220" height="185" fill="white" stroke="#ddd" stroke-width="1" rx="5"/>

  <text x="830" y="248" font-size="9" font-weight="bold" fill="#5dade2">Pantalla</text>
  <text x="830" y="260" font-size="9" fill="#555">195 × 297 × 20 mm</text>
  <line x1="830" y1="265" x2="1030" y2="265" stroke="#f0f0f0" stroke-width="1"/>

  <text x="830" y="278" font-size="9" font-weight="bold" fill="#85c1e9">Glade S2 × 5</text>
  <text x="830" y="290" font-size="9" fill="#555">202 × 80 × 80 mm c/u</text>
  <line x1="830" y1="295" x2="1030" y2="295" stroke="#f0f0f0" stroke-width="1"/>

  <text x="830" y="308" font-size="9" font-weight="bold" fill="#7f8c8d">MP Point Smart 2</text>
  <text x="830" y="320" font-size="9" fill="#555">201 × 80 × 62 mm</text>
  <text x="830" y="330" font-size="8" fill="#bbb">fuente: mercadopago.com.mx oficial</text>
  <line x1="830" y1="335" x2="1030" y2="335" stroke="#f0f0f0" stroke-width="1"/>

  <text x="830" y="348" font-size="9" font-weight="bold" fill="#7f8c8d">CH-926 Coin Acceptor</text>
  <text x="830" y="360" font-size="9" fill="#555">Panel: 120 × 64 mm · 12V DC</text>
  <text x="830" y="370" font-size="8" fill="#bbb">cuerpo ~110mm profundo · cabe en 180mm</text>
  <line x1="830" y1="375" x2="1030" y2="375" stroke="#f0f0f0" stroke-width="1"/>

  <text x="830" y="388" font-size="9" font-weight="bold" fill="#8e44ad">Mean Well LRS-50-12</text>
  <text x="830" y="400" font-size="9" fill="#555">99 × 82 × 30 mm · 12V / 50W</text>
  <text x="830" y="410" font-size="8" fill="#bbb">+ step-down 12→5V para el RPi</text>

  <line x1="820" y1="425" x2="1040" y2="425" stroke="#eee" stroke-width="1"/>

  <text x="930" y="446" text-anchor="middle" font-size="12" font-weight="bold" fill="#222">Flujo del usuario</text>
  <rect x="830" y="452" width="22" height="22" fill="#ddeeff" stroke="#2980b9" stroke-width="1.5" rx="3"/>
  <text x="841" y="467" text-anchor="middle" font-size="11" font-weight="bold" fill="#2980b9">1</text>
  <text x="862" y="467" font-size="11" fill="#2980b9">Selecciona en pantalla</text>
  <text x="841" y="486" text-anchor="middle" font-size="14" fill="#ccc">↓</text>

  <rect x="830" y="494" width="22" height="22" fill="#eee" stroke="#7f8c8d" stroke-width="1.5" rx="3"/>
  <text x="841" y="509" text-anchor="middle" font-size="11" font-weight="bold" fill="#7f8c8d">2</text>
  <text x="862" y="509" font-size="11" fill="#7f8c8d">Paga (tarjeta / moneda)</text>
  <text x="841" y="528" text-anchor="middle" font-size="14" fill="#ccc">↓</text>

  <rect x="830" y="536" width="22" height="22" fill="#fffbf0" stroke="#d4ac0d" stroke-width="1.5" rx="3"/>
  <text x="841" y="551" text-anchor="middle" font-size="11" font-weight="bold" fill="#d4ac0d">3</text>
  <text x="862" y="551" font-size="11" fill="#d4ac0d">Recibe fragancia</text>

  <line x1="820" y1="570" x2="1040" y2="570" stroke="#eee" stroke-width="1"/>

  <rect x="820" y="578" width="220" height="52" fill="#fff9e6" stroke="#f0c040" stroke-width="1.2" rx="5"/>
  <text x="930" y="596" text-anchor="middle" font-size="9" font-weight="bold" fill="#a07820">⚠ Confirmar al recibir terminal</text>
  <text x="930" y="610" text-anchor="middle" font-size="9" fill="#a07820">Medidas MP Smart 2 son oficiales</text>
  <text x="930" y="622" text-anchor="middle" font-size="9" fill="#a07820">pero verificar cradle físico</text>

  <!-- Nota: atomizador pendiente -->
  <rect x="820" y="735" width="220" height="90" fill="#f0f0f0" stroke="#bbb" stroke-width="1.2" rx="5"/>
  <text x="930" y="753" text-anchor="middle" font-size="9" font-weight="bold" fill="#555">⚗ Botella + atomizador: por definir</text>
  <text x="830" y="768" font-size="8" fill="#666">El mecanismo (transistor → cabezal</text>
  <text x="830" y="780" font-size="8" fill="#666">atomizador) debe funcionar con</text>
  <text x="830" y="792" font-size="8" fill="#666">cualquier atomizador estándar,</text>
  <text x="830" y="804" font-size="8" fill="#666">pero faltan pruebas con distintos</text>
  <text x="830" y="816" font-size="8" fill="#666">modelos de cabezal.</text>

  <rect x="820" y="642" width="220" height="82" fill="#f5eeff" stroke="#8e44ad" stroke-width="1.2" rx="5"/>
  <text x="930" y="660" text-anchor="middle" font-size="9" font-weight="bold" fill="#6c3483">Fuente de poder</text>
  <text x="830" y="675" font-size="9" fill="#555">• LRS-50-12 → 12V (coin acceptor)</text>
  <text x="830" y="689" font-size="9" fill="#555">• Step-down 12→5V → RPi 4</text>
  <text x="830" y="703" font-size="9" fill="#555">• ESP32 desde 3.3V del RPi</text>
  <text x="830" y="717" font-size="8" fill="#999">  Glades usan batería interna propia</text>

</svg>
